<?xml version="1.0" encoding="iso-8859-1"?>
<!-- Generator: Adobe Illustrator 18.0.0, SVG Export Plug-In . SVG Version: 6.00 Build 0)  -->
<!DOCTYPE svg PUBLIC "-//W3C//DTD SVG 1.1//EN" "http://www.w3.org/Graphics/SVG/1.1/DTD/svg11.dtd">
<svg xmlns="http://www.w3.org/2000/svg" xmlns:xlink="http://www.w3.org/1999/xlink" version="1.1" id="Capa_1" x="0px" y="0px" viewBox="0 0 454.474 454.474" style="enable-background:new 0 0 454.474 454.474;" xml:space="preserve" width="512px" height="512px">
<g>
	<path d="M126.392,110.916l65.813-11.328c-0.02-5.537-0.995-11.326-1.178-16.279c-0.813-22.098,0.592-48.586,12.908-67.701   c2.195-3.43,4.582-6.563,2.504-10.918c-2.703-5.664-9.668-6.006-13.916-2.055c-7.823,7.703-13.097,17.318-17.701,27.17   c-5.211,11.146-8.621,22.973-11.007,35.037c-2.549-16.67-2.858-34.322,3.019-49.412c1.461-3.801,3.18-7.344,0.27-11.199   c-3.777-5.006-10.676-3.955-14.045,0.77c-6.127,9.111-9.367,19.59-11.908,30.162c-1.453,6.043-2.418,12.166-3.01,18.332   c-6.722-11.926-14.914-22.99-25.006-31.774c-3.446-2.926-8.319-7.81-13.258-7.894c-6.349-0.107-10.602,6.879-7.59,12.469   c1.303,2.418,4.44,4.435,6.254,6.588c3.465,4.133,6.64,8.594,9.151,13.379C118.381,66.615,123.056,88.349,126.392,110.916z" fill="#f08080"/>
	<path d="M189.667,370.707c-1.34-49.293,3.521-113.748,8.667-181.988l0.204-2.697c2.578-34.189,8.046-56.428,17.8-69.217   c-6.018-6.361-12.848-7.387-19.665-7.387c-7.622,0-16.315,1.699-26.382,3.666l-21.074,3.705   c-18.62,2.914-33.326,5.217-40.172,15.818c-6.361,9.852-6.531,27.443-0.412,54.723c14.215,4.424,29.133,6.787,43.902,7.77   c9.98,0.664,20.34,0.189,30.173-1.582c2.604-0.469,9.509-3.031,10.333,1.578c0.848,4.717-8.626,5.551-11.407,6.311   c-19.883,4.031-39.241,4.643-59.421,2.506c-3.291-0.486-6.573-0.998-9.843-1.559c0.188,0.695,0.373,1.387,0.567,2.092l0.716,2.598   c27.999,101.596,56.805,206.109,87.309,235.621c-1.358-3.09-2.592-6.502-3.701-10.254   C192.877,417.568,190.392,397.385,189.667,370.707z" fill="#f08080"/>
	<path d="M351.523,23.654c-9.969,4.551-18.193,11.904-25.832,19.604c-8.864,8.934-16.187,19.174-22.605,29.994   c3.164-16.721,9.487-34.213,19.937-46.223c2.659-3.084,5.47-5.844,4.032-10.451c-1.867-5.984-8.718-7.328-13.481-4.014   c-8.854,6.471-15.438,15.295-21.387,24.373c-3.512,5.361-6.559,10.977-9.254,16.762c-2.06-11.74-5.322-23.24-10.228-34.27   c-2.172-4.568-4.804-10.373-8.594-13.91c-4.264-5.273-13.007-3.42-14.743,3.146c-1.051,3.977,1.412,6.672,2.768,10.047   c2.063,5.092,3.428,10.215,4.497,15.602c5.161,22.281,0.54,46.975-3.897,68.953l65.938,11.586   c2.397-6.375,3.559-13.676,5.278-19.094c5.631-19.51,17.476-44.836,34.699-56.621C367.277,32.873,362.838,18.76,351.523,23.654z" fill="#f08080"/>
	<path d="M293.324,120.123c-3.406-0.52-6.93-1.057-10.554-1.668c-3.649-0.637-7.148-1.307-10.532-1.953   c-9.988-1.91-18.615-3.561-26.19-3.561c-14.342,0-28.72,4.49-35.378,52.986c16.334,13.154,34.491,24.174,52.66,30.195   c5.865,1.943,13.718,3.945,20.717,4.947c5.77,0.824,5.668,6.715-0.563,6.738c-6.23,0.023-30.543-1.539-64.07-19.338   c-3.094-1.643-7.114-3.516-10.58-5.717c-0.113,1.318-0.222,2.652-0.325,4.02l-0.203,2.697   c-9.421,124.926-19.162,254.104,16.347,264.844l0.525,0.129l0.309,0.016c0.248,0.01,0.499,0.016,0.747,0.016   c24.172,0.006,47.011-53.666,69.079-124.56c-9.094-0.113-18.177-0.736-27.131-2.459c-6.115-1.176-12.082-2.643-18.029-4.488   c-6.776-2.115-4.784-7.891,1.681-6.939c13.215,1.943,26.266,1.783,39.53,0.395c2.4-0.35,5.514-1.252,8.621-1.797   c4.869-16.219,9.702-33.158,14.506-50.418c-4.512-0.535-8.998-1.258-13.421-2.27c-5.7-1.303-11.253-2.883-16.806-4.721   c-6.325-2.094-3.791-8.135,3.195-6.439c10.015,2.432,20.295,1.527,30.513,0.848c3.782-13.734,7.546-27.607,11.295-41.43   l0.695-2.563c10.109-37.273,11.254-60.105,3.603-71.854C326.675,125.205,311.958,122.963,293.324,120.123z" fill="#f08080"/>
</g>
<g>
</g>
<g>
</g>
<g>
</g>
<g>
</g>
<g>
</g>
<g>
</g>
<g>
</g>
<g>
</g>
<g>
</g>
<g>
</g>
<g>
</g>
<g>
</g>
<g>
</g>
<g>
</g>
<g>
</g>
</svg>
